<svg xmlns="http://www.w3.org/2000/svg" width="1200" height="900" viewBox="0 0 1200 900" role="img">
<defs>
<linearGradient id="g" x1="0" y1="0" x2="1" y2="1">
<stop offset="0" stop-color="#525a63"/><stop offset="1" stop-color="#6b747d"/>
</linearGradient>
<pattern id="p" width="28" height="28" patternTransform="rotate(135)" patternUnits="userSpaceOnUse">
<rect width="28" height="28" fill="transparent"/><rect width="14" height="28" fill="#ffffff" opacity="0.04"/>
</pattern>
</defs>
<rect width="1200" height="900" fill="url(#g)"/>
<rect width="1200" height="900" fill="url(#p)"/>
<circle cx="530" cy="320" r="9" fill="#cfd3d6" opacity="0.9"/><circle cx="553" cy="373" r="13" fill="#cfd3d6" opacity="0.9"/><circle cx="576" cy="336" r="17" fill="#cfd3d6" opacity="0.9"/><circle cx="599" cy="389" r="9" fill="#cfd3d6" opacity="0.9"/><circle cx="622" cy="352" r="13" fill="#cfd3d6" opacity="0.9"/><circle cx="645" cy="405" r="17" fill="#cfd3d6" opacity="0.9"/><circle cx="668" cy="368" r="9" fill="#cfd3d6" opacity="0.9"/><circle cx="541" cy="331" r="13" fill="#cfd3d6" opacity="0.9"/><circle cx="564" cy="384" r="17" fill="#cfd3d6" opacity="0.9"/><circle cx="587" cy="347" r="9" fill="#cfd3d6" opacity="0.9"/><circle cx="610" cy="400" r="13" fill="#cfd3d6" opacity="0.9"/><circle cx="633" cy="363" r="17" fill="#cfd3d6" opacity="0.9"/><circle cx="656" cy="326" r="9" fill="#cfd3d6" opacity="0.9"/><circle cx="679" cy="379" r="13" fill="#cfd3d6" opacity="0.9"/><circle cx="552" cy="342" r="17" fill="#cfd3d6" opacity="0.9"/><circle cx="575" cy="395" r="9" fill="#cfd3d6" opacity="0.9"/>
<text x="600" y="666" font-family="Sora, Arial, sans-serif" font-size="40" font-weight="800" fill="#FAF6EC" text-anchor="middle">RHA Granules</text>
<text x="600" y="704" font-family="monospace" font-size="20" fill="#FAF6EC" opacity="0.75" text-anchor="middle">Steel ladle & tundish</text>
<text x="600" y="874" font-family="monospace" font-size="16" fill="#FAF6EC" opacity="0.55" text-anchor="middle">PLACEHOLDER — replace with real photo</text>
</svg>