<svg xmlns="http://www.w3.org/2000/svg" width="1200" height="900" viewBox="0 0 1200 900" role="img">
<defs>
<linearGradient id="g" x1="0" y1="0" x2="1" y2="1">
<stop offset="0" stop-color="#5a6b66"/><stop offset="1" stop-color="#74867f"/>
</linearGradient>
<pattern id="p" width="28" height="28" patternTransform="rotate(135)" patternUnits="userSpaceOnUse">
<rect width="28" height="28" fill="transparent"/><rect width="14" height="28" fill="#ffffff" opacity="0.04"/>
</pattern>
</defs>
<rect width="1200" height="900" fill="url(#g)"/>
<rect width="1200" height="900" fill="url(#p)"/>
<rect x="530" y="314" width="26" height="14" rx="7" fill="#d8d2c0" opacity="0.9" transform="rotate(18 600 360)"/><rect x="568" y="314" width="26" height="14" rx="7" fill="#d8d2c0" opacity="0.9" transform="rotate(18 600 360)"/><rect x="606" y="314" width="26" height="14" rx="7" fill="#d8d2c0" opacity="0.9" transform="rotate(18 600 360)"/><rect x="644" y="314" width="26" height="14" rx="7" fill="#d8d2c0" opacity="0.9" transform="rotate(18 600 360)"/><rect x="530" y="348" width="26" height="14" rx="7" fill="#d8d2c0" opacity="0.9" transform="rotate(18 600 360)"/><rect x="568" y="348" width="26" height="14" rx="7" fill="#d8d2c0" opacity="0.9" transform="rotate(18 600 360)"/><rect x="606" y="348" width="26" height="14" rx="7" fill="#d8d2c0" opacity="0.9" transform="rotate(18 600 360)"/><rect x="644" y="348" width="26" height="14" rx="7" fill="#d8d2c0" opacity="0.9" transform="rotate(18 600 360)"/><rect x="530" y="382" width="26" height="14" rx="7" fill="#d8d2c0" opacity="0.9" transform="rotate(18 600 360)"/><rect x="568" y="382" width="26" height="14" rx="7" fill="#d8d2c0" opacity="0.9" transform="rotate(18 600 360)"/><rect x="606" y="382" width="26" height="14" rx="7" fill="#d8d2c0" opacity="0.9" transform="rotate(18 600 360)"/><rect x="644" y="382" width="26" height="14" rx="7" fill="#d8d2c0" opacity="0.9" transform="rotate(18 600 360)"/>
<text x="600" y="666" font-family="Sora, Arial, sans-serif" font-size="40" font-weight="800" fill="#FAF6EC" text-anchor="middle">RHA Pellets</text>
<text x="600" y="704" font-family="monospace" font-size="20" fill="#FAF6EC" opacity="0.75" text-anchor="middle">Dust-free insulation</text>
<text x="600" y="874" font-family="monospace" font-size="16" fill="#FAF6EC" opacity="0.55" text-anchor="middle">PLACEHOLDER — replace with real photo</text>
</svg>