<svg xmlns="http://www.w3.org/2000/svg" width="1200" height="1320" viewBox="0 0 1200 1320" role="img">
<defs>
<linearGradient id="g" x1="0" y1="0" x2="1" y2="1">
<stop offset="0" stop-color="#0E2A1D"/><stop offset="1" stop-color="#19402D"/>
</linearGradient>
<pattern id="p" width="28" height="28" patternTransform="rotate(135)" patternUnits="userSpaceOnUse">
<rect width="28" height="28" fill="transparent"/><rect width="14" height="28" fill="#ffffff" opacity="0.04"/>
</pattern>
</defs>
<rect width="1200" height="1320" fill="url(#g)"/>
<rect width="1200" height="1320" fill="url(#p)"/>
<circle cx="540" cy="508" r="6" fill="#E6C77A" opacity="0.85"/><circle cx="566" cy="545" r="9" fill="#E6C77A" opacity="0.85"/><circle cx="592" cy="512" r="12" fill="#E6C77A" opacity="0.85"/><circle cx="618" cy="549" r="15" fill="#E6C77A" opacity="0.85"/><circle cx="644" cy="516" r="6" fill="#E6C77A" opacity="0.85"/><circle cx="550" cy="553" r="9" fill="#E6C77A" opacity="0.85"/><circle cx="576" cy="520" r="12" fill="#E6C77A" opacity="0.85"/><circle cx="602" cy="557" r="15" fill="#E6C77A" opacity="0.85"/><circle cx="628" cy="524" r="6" fill="#E6C77A" opacity="0.85"/><circle cx="654" cy="561" r="9" fill="#E6C77A" opacity="0.85"/><circle cx="560" cy="528" r="12" fill="#E6C77A" opacity="0.85"/><circle cx="586" cy="565" r="15" fill="#E6C77A" opacity="0.85"/><circle cx="612" cy="532" r="6" fill="#E6C77A" opacity="0.85"/><circle cx="638" cy="569" r="9" fill="#E6C77A" opacity="0.85"/>
<text x="600" y="976" font-family="Sora, Arial, sans-serif" font-size="40" font-weight="800" fill="#FAF6EC" text-anchor="middle">Rice Husk Ash</text>
<text x="600" y="1014" font-family="monospace" font-size="20" fill="#FAF6EC" opacity="0.75" text-anchor="middle">High-silica RHA · powder & granules</text>
<text x="600" y="1294" font-family="monospace" font-size="16" fill="#FAF6EC" opacity="0.55" text-anchor="middle">PLACEHOLDER — replace with real photo</text>
</svg>