<svg xmlns="http://www.w3.org/2000/svg" width="900" height="900" viewBox="0 0 900 900" role="img">
<defs>
<linearGradient id="g" x1="0" y1="0" x2="1" y2="1">
<stop offset="0" stop-color="#1c3a2a"/><stop offset="1" stop-color="#2a5440"/>
</linearGradient>
<pattern id="p" width="28" height="28" patternTransform="rotate(135)" patternUnits="userSpaceOnUse">
<rect width="28" height="28" fill="transparent"/><rect width="14" height="28" fill="#ffffff" opacity="0.04"/>
</pattern>
</defs>
<rect width="900" height="900" fill="url(#g)"/>
<rect width="900" height="900" fill="url(#p)"/>
<circle cx="380" cy="320" r="9" fill="#E6C77A" opacity="0.9"/><circle cx="403" cy="373" r="13" fill="#E6C77A" opacity="0.9"/><circle cx="426" cy="336" r="17" fill="#E6C77A" opacity="0.9"/><circle cx="449" cy="389" r="9" fill="#E6C77A" opacity="0.9"/><circle cx="472" cy="352" r="13" fill="#E6C77A" opacity="0.9"/><circle cx="495" cy="405" r="17" fill="#E6C77A" opacity="0.9"/><circle cx="518" cy="368" r="9" fill="#E6C77A" opacity="0.9"/><circle cx="391" cy="331" r="13" fill="#E6C77A" opacity="0.9"/><circle cx="414" cy="384" r="17" fill="#E6C77A" opacity="0.9"/><circle cx="437" cy="347" r="9" fill="#E6C77A" opacity="0.9"/><circle cx="460" cy="400" r="13" fill="#E6C77A" opacity="0.9"/><circle cx="483" cy="363" r="17" fill="#E6C77A" opacity="0.9"/><circle cx="506" cy="326" r="9" fill="#E6C77A" opacity="0.9"/><circle cx="529" cy="379" r="13" fill="#E6C77A" opacity="0.9"/><circle cx="402" cy="342" r="17" fill="#E6C77A" opacity="0.9"/><circle cx="425" cy="395" r="9" fill="#E6C77A" opacity="0.9"/>
<text x="450" y="666" font-family="Sora, Arial, sans-serif" font-size="40" font-weight="800" fill="#FAF6EC" text-anchor="middle">Material Close-up</text>
<text x="450" y="704" font-family="monospace" font-size="20" fill="#FAF6EC" opacity="0.75" text-anchor="middle">Consistent, NABL-tested</text>
<text x="450" y="874" font-family="monospace" font-size="16" fill="#FAF6EC" opacity="0.55" text-anchor="middle">PLACEHOLDER — replace with real photo</text>
</svg>