<svg xmlns="http://www.w3.org/2000/svg" width="1200" height="900" viewBox="0 0 1200 900" role="img">
<defs>
<linearGradient id="g" x1="0" y1="0" x2="1" y2="1">
<stop offset="0" stop-color="#234d2f"/><stop offset="1" stop-color="#356b42"/>
</linearGradient>
<pattern id="p" width="28" height="28" patternTransform="rotate(135)" patternUnits="userSpaceOnUse">
<rect width="28" height="28" fill="transparent"/><rect width="14" height="28" fill="#ffffff" opacity="0.04"/>
</pattern>
</defs>
<rect width="1200" height="900" fill="url(#g)"/>
<rect width="1200" height="900" fill="url(#p)"/>
<path d="M 450 420 q 8 -70 16 0" stroke="#E6C77A" stroke-width="6" fill="none" opacity="0.8"/><path d="M 490 420 q 8 -70 16 0" stroke="#E6C77A" stroke-width="6" fill="none" opacity="0.8"/><path d="M 530 420 q 8 -70 16 0" stroke="#E6C77A" stroke-width="6" fill="none" opacity="0.8"/><path d="M 570 420 q 8 -70 16 0" stroke="#E6C77A" stroke-width="6" fill="none" opacity="0.8"/><path d="M 610 420 q 8 -70 16 0" stroke="#E6C77A" stroke-width="6" fill="none" opacity="0.8"/><path d="M 650 420 q 8 -70 16 0" stroke="#E6C77A" stroke-width="6" fill="none" opacity="0.8"/><path d="M 690 420 q 8 -70 16 0" stroke="#E6C77A" stroke-width="6" fill="none" opacity="0.8"/><path d="M 730 420 q 8 -70 16 0" stroke="#E6C77A" stroke-width="6" fill="none" opacity="0.8"/>
<text x="600" y="666" font-family="Sora, Arial, sans-serif" font-size="40" font-weight="800" fill="#FAF6EC" text-anchor="middle">Rice Fields</text>
<text x="600" y="704" font-family="monospace" font-size="20" fill="#FAF6EC" opacity="0.75" text-anchor="middle">Sustainable sourcing</text>
<text x="600" y="874" font-family="monospace" font-size="16" fill="#FAF6EC" opacity="0.55" text-anchor="middle">PLACEHOLDER — replace with real photo</text>
</svg>